<!DOCTYPE svg PUBLIC "-//W3C//DTD SVG 20010904//EN" "http://www.w3.org/TR/2001/REC-SVG-20010904/DTD/svg10.dtd">
<svg version="1.0" xmlns="http://www.w3.org/2000/svg" width="314px" height="138px" viewBox="0 0 3140 1380" preserveAspectRatio="xMidYMid meet">
<g id="layer101" fill="#000000" stroke="none">
 <path d="M371 1140 c-77 -28 -124 -62 -173 -125 -58 -73 -81 -149 -75 -245 2 -41 6 -82 9 -90 26 -80 50 -121 102 -171 92 -89 174 -114 309 -95 l57 8 0 -75 c0 -85 17 -136 55 -161 43 -28 80 -30 129 -7 69 34 76 68 76 391 0 198 -4 277 -15 328 -40 177 -151 262 -338 262 -55 -1 -100 -7 -136 -20z m160 -180 c61 -17 80 -47 86 -139 10 -148 -23 -203 -124 -205 -48 -1 -87 28 -110 83 -20 47 -15 157 10 201 28 51 36 58 65 63 15 2 29 5 32 5 3 1 21 -3 41 -8z"/>
 <path d="M2143 1138 c-45 -32 -53 -88 -52 -362 0 -205 3 -234 19 -267 37 -71 86 -93 156 -67 58 21 63 49 58 336 -2 139 -8 270 -14 291 -23 86 -98 117 -167 69z"/>
 <path d="M1185 1117 c-91 -36 -151 -92 -192 -177 -36 -74 -38 -206 -5 -290 36 -90 118 -181 207 -228 44 -23 61 -26 150 -27 90 0 106 3 157 28 73 36 133 99 171 179 63 134 28 269 -102 398 -92 91 -160 123 -271 127 -51 1 -97 -2 -115 -10z m202 -212 c33 -23 64 -92 70 -159 5 -56 3 -64 -23 -98 -33 -42 -73 -55 -119 -38 -69 26 -105 83 -105 165 0 71 16 105 65 133 28 16 87 15 112 -3z"/>
 <path d="M1832 1120 c-25 -11 -42 -47 -42 -91 0 -41 62 -109 101 -109 43 0 73 18 93 55 24 43 15 78 -29 122 -35 35 -74 42 -123 23z"/>
 <path d="M2595 1105 c-64 -31 -85 -50 -109 -100 -18 -36 -20 -70 -24 -350 -4 -321 0 -366 36 -414 21 -26 96 -40 129 -23 24 13 50 65 58 115 9 55 33 74 103 82 43 5 66 13 80 28 65 70 39 147 -50 147 -67 0 -109 19 -124 55 -25 61 -11 250 22 282 12 12 38 19 86 21 56 4 71 8 83 25 23 33 19 84 -9 112 -51 51 -196 62 -281 20z"/>
 <path d="M2139 335 c-32 -17 -59 -80 -52 -119 3 -15 20 -43 38 -61 66 -65 166 -49 194 31 13 38 13 44 -6 80 -37 73 -113 102 -174 69z"/>
 </g>

</svg>